<svg width="228" height="62" viewBox="0 0 228 62" fill="none" xmlns="http://www.w3.org/2000/svg">
<path d="M38.363 0.199996V9.968H24.377V52H14.165V9.968H0.253016V0.199996H38.363ZM74.993 42.232H80.543V61.916H70.331V52H41.693V61.916H31.481V42.232H36.513C39.3743 38.236 40.805 32.39 40.805 24.694V0.199996H74.993V42.232ZM47.465 42.232H64.781V9.746H51.017V24.842C51.017 32.3407 49.833 38.1373 47.465 42.232ZM144.707 0.199996V52H134.569V18.404L119.991 42.454H118.807L104.229 18.478V52H94.0168V0.199996H104.525L119.399 24.694L134.199 0.199996H144.707ZM179.741 25.138C184.279 27.7527 186.549 31.6993 186.549 36.978C186.549 41.3687 184.995 44.97 181.887 47.782C178.779 50.594 174.955 52 170.417 52H148.439V0.199996H168.863C173.303 0.199996 177.027 1.58133 180.037 4.344C183.095 7.05733 184.625 10.5353 184.625 14.778C184.625 19.07 182.997 22.5233 179.741 25.138ZM168.863 9.746H158.651V21.142H168.863C170.441 21.142 171.749 20.5993 172.785 19.514C173.87 18.4287 174.413 17.072 174.413 15.444C174.413 13.816 173.895 12.4593 172.859 11.374C171.823 10.2887 170.491 9.746 168.863 9.746ZM170.417 42.454C172.143 42.454 173.574 41.8867 174.709 40.752C175.843 39.568 176.411 38.088 176.411 36.312C176.411 34.5853 175.843 33.1547 174.709 32.02C173.574 30.836 172.143 30.244 170.417 30.244H158.651V42.454H170.417ZM227.875 0.199996V52H217.663V9.968H199.385V52H189.173V0.199996H227.875Z" fill="#487BFF"/>
</svg>