<?xml version="1.0" standalone="no"?>
<!DOCTYPE svg PUBLIC "-//W3C//DTD SVG 20010904//EN"
 "http://www.w3.org/TR/2001/REC-SVG-20010904/DTD/svg10.dtd">
<svg version="1.0" xmlns="http://www.w3.org/2000/svg"
 width="620.000000pt" height="620.000000pt" viewBox="0 0 620.000000 620.000000"
 preserveAspectRatio="xMidYMid meet">
<metadata>
Created by potrace 1.14, written by Peter Selinger 2001-2017
</metadata>
<g transform="translate(0.000000,620.000000) scale(0.100000,-0.100000)"
fill="#000000" stroke="none">
<path d="M999 6196 c-2 -2 -24 -6 -49 -9 -105 -14 -250 -61 -350 -115 -156
-84 -315 -226 -397 -352 -24 -36 -46 -69 -51 -75 -17 -23 -75 -154 -97 -221
-23 -72 -28 -92 -45 -194 -5 -31 -9 -955 -9 -2125 0 -1778 2 -2083 15 -2160 8
-49 16 -94 18 -100 1 -5 8 -30 15 -55 43 -151 152 -330 281 -460 162 -163 345
-260 584 -310 88 -19 156 -19 2211 -17 1166 1 2129 5 2141 9 11 3 52 14 90 23
313 78 578 293 727 590 41 83 80 194 99 285 19 95 20 4284 0 4378 -73 351
-292 638 -607 795 -75 38 -196 80 -260 93 -22 4 -47 10 -55 13 -17 6 -4254 13
-4261 7z"/>
</g>
</svg>
